<svg width="49" height="48" viewBox="0 0 49 48" fill="none" xmlns="http://www.w3.org/2000/svg">
<path d="M38.5383 8H36.514V4H32.4655V8H16.2716V4H12.2231V8H10.1989C7.95197 8 6.17063 9.8 6.17063 12L6.15039 40C6.15039 42.2 7.95197 44 10.1989 44H38.5383C40.7649 44 42.5868 42.2 42.5868 40V12C42.5868 9.8 40.7649 8 38.5383 8ZM38.5383 40H10.1989V20H38.5383V40ZM18.2958 28H14.2474V24H18.2958V28ZM26.3928 28H22.3443V24H26.3928V28ZM34.4898 28H30.4413V24H34.4898V28ZM18.2958 36H14.2474V32H18.2958V36ZM26.3928 36H22.3443V32H26.3928V36ZM34.4898 36H30.4413V32H34.4898V36Z" fill="white"/>
</svg>
