<svg width="100" height="100" viewBox="0 0 100 100" fill="none" xmlns="http://www.w3.org/2000/svg">
<rect width="100" height="100" rx="15" fill="#2BCB75"/>
<path d="M50 66C49.3524 66 48.8099 65.7806 48.3726 65.3417C47.9337 64.9044 47.7143 64.3619 47.7143 63.7143V52.2857H36.2857C35.6381 52.2857 35.0949 52.0663 34.656 51.6274C34.2187 51.1901 34 50.6476 34 50C34 49.3524 34.2187 48.8091 34.656 48.3703C35.0949 47.933 35.6381 47.7143 36.2857 47.7143H47.7143V36.2857C47.7143 35.6381 47.9337 35.0949 48.3726 34.656C48.8099 34.2187 49.3524 34 50 34C50.6476 34 51.1909 34.2187 51.6297 34.656C52.067 35.0949 52.2857 35.6381 52.2857 36.2857V47.7143H63.7143C64.3619 47.7143 64.9044 47.933 65.3417 48.3703C65.7806 48.8091 66 49.3524 66 50C66 50.6476 65.7806 51.1901 65.3417 51.6274C64.9044 52.0663 64.3619 52.2857 63.7143 52.2857H52.2857V63.7143C52.2857 64.3619 52.067 64.9044 51.6297 65.3417C51.1909 65.7806 50.6476 66 50 66Z" fill="white"/>
</svg>
