<svg width="100" height="100" viewBox="0 0 100 100" fill="none" xmlns="http://www.w3.org/2000/svg">
<rect width="100" height="100" rx="15" fill="#2BCB75"/>
<path d="M55.8222 50.8444L49.1556 44.1333L54.0889 39.2444L52.8 37.9556L44.3111 46.4444C43.9556 46.8 43.5407 46.9778 43.0667 46.9778C42.5926 46.9778 42.1778 46.8 41.8222 46.4444C41.4667 46.0889 41.2889 45.6667 41.2889 45.1778C41.2889 44.6889 41.4667 44.2667 41.8222 43.9111L50.2667 35.4667C50.9778 34.7556 51.8148 34.4 52.7778 34.4C53.7407 34.4 54.5778 34.7556 55.2889 35.4667L56.5778 36.7556L58.8 34.5333C59.1556 34.1778 59.5778 34 60.0667 34C60.5556 34 60.9778 34.1778 61.3333 34.5333L65.4667 38.6667C65.8222 39.0222 66 39.4444 66 39.9333C66 40.4222 65.8222 40.8444 65.4667 41.2L55.8222 50.8444ZM35.7778 66C35.2741 66 34.8519 65.8296 34.5111 65.4889C34.1704 65.1481 34 64.7259 34 64.2222V60.8C34 60.3259 34.0889 59.8741 34.2667 59.4444C34.4444 59.0148 34.6963 58.637 35.0222 58.3111L46.6222 46.6667L53.3333 53.3333L41.6889 64.9778C41.363 65.3037 40.9852 65.5556 40.5556 65.7333C40.1259 65.9111 39.6741 66 39.2 66H35.7778Z" fill="white"/>
</svg>
